<svg xmlns="http://www.w3.org/2000/svg" viewBox="0 0 760 262" width="760" height="262" role="img" aria-label="Code search: labelled files found, same result budget as jegrep"><style>
.surface { fill: #fcfcfb; } .title { fill: #0b0b0b; } .ink { fill: #52514e; } .grid { stroke: #e4e3df; }
.s1 { fill: #2a78d6; } .s2 { fill: #eb6834; } .s3 { fill: #1baf7a; }
@media (prefers-color-scheme: dark) {
  .surface { fill: #1a1a19; } .title { fill: #ffffff; } .ink { fill: #c3c2b7; } .grid { stroke: #383835; }
  .s1 { fill: #3987e5; } .s2 { fill: #d95926; } .s3 { fill: #199e70; }
}
text { font-family: -apple-system, BlinkMacSystemFont, "Segoe UI", Helvetica, Arial, sans-serif; }
</style>
<rect class="surface" width="760" height="262" rx="8"/>
<text class="title" x="20" y="30" font-size="15" font-weight="600">Code search: labelled files found, same result budget as jegrep</text>
<rect class="s1" x="20" y="44" width="10" height="10" rx="2"/>
<text class="ink" x="36" y="53" font-size="12">English queries</text>
<rect class="s2" x="154.0" y="44" width="10" height="10" rx="2"/>
<text class="ink" x="170.0" y="53" font-size="12">the same queries in Finnish</text>
<line class="grid" x1="250.0" x2="250.0" y1="68" y2="226" stroke-width="1"/>
<text class="ink" x="250.0" y="242" font-size="11" text-anchor="middle">0%</text>
<line class="grid" x1="363.5" x2="363.5" y1="68" y2="226" stroke-width="1"/>
<text class="ink" x="363.5" y="242" font-size="11" text-anchor="middle">25%</text>
<line class="grid" x1="477.0" x2="477.0" y1="68" y2="226" stroke-width="1"/>
<text class="ink" x="477.0" y="242" font-size="11" text-anchor="middle">50%</text>
<line class="grid" x1="590.5" x2="590.5" y1="68" y2="226" stroke-width="1"/>
<text class="ink" x="590.5" y="242" font-size="11" text-anchor="middle">75%</text>
<line class="grid" x1="704.0" x2="704.0" y1="68" y2="226" stroke-width="1"/>
<text class="ink" x="704.0" y="242" font-size="11" text-anchor="middle">100%</text>
<text class="title" x="238" y="89.0" font-size="12" text-anchor="end">jegrep, no index</text>
<path class="s1" d="M250,74 h450.0 a4,4 0 0 1 4,4 v2 a4,4 0 0 1 -4,4 h-450.0 z"/>
<text class="ink" x="709.0" y="83" font-size="10.5">100.0%</text>
<path class="s2" d="M250,86 h185.2 a4,4 0 0 1 4,4 v2 a4,4 0 0 1 -4,4 h-185.2 z"/>
<text class="ink" x="444.2" y="95" font-size="10.5">41.7%</text>
<text class="title" x="238" y="125.0" font-size="12" text-anchor="end">BM25</text>
<path class="s1" d="M250,110 h241.9 a4,4 0 0 1 4,4 v2 a4,4 0 0 1 -4,4 h-241.9 z"/>
<text class="ink" x="500.9" y="119" font-size="10.5">54.2%</text>
<path class="s2" d="M250,122 h-1.0 a4,4 0 0 1 4,4 v2 a4,4 0 0 1 -4,4 h1.0 z"/>
<text class="ink" x="258.0" y="131" font-size="10.5">0.0%</text>
<text class="title" x="238" y="161.0" font-size="12" text-anchor="end">embedding index</text>
<path class="s1" d="M250,146 h397.0 a4,4 0 0 1 4,4 v2 a4,4 0 0 1 -4,4 h-397.0 z"/>
<text class="ink" x="656.0" y="155" font-size="10.5">88.3%</text>
<path class="s2" d="M250,158 h234.4 a4,4 0 0 1 4,4 v2 a4,4 0 0 1 -4,4 h-234.4 z"/>
<text class="ink" x="493.4" y="167" font-size="10.5">52.5%</text>
<text class="title" x="238" y="197.0" font-size="12" text-anchor="end">embedding index + Jev rerank</text>
<path class="s1" d="M250,182 h431.1 a4,4 0 0 1 4,4 v2 a4,4 0 0 1 -4,4 h-431.1 z"/>
<text class="ink" x="690.1" y="191" font-size="10.5">95.8%</text>
<path class="s2" d="M250,194 h332.7 a4,4 0 0 1 4,4 v2 a4,4 0 0 1 -4,4 h-332.7 z"/>
<text class="ink" x="591.7" y="203" font-size="10.5">74.2%</text>
<text class="ink" x="20" y="258" font-size="10.5">20 Postgres and CPython queries from jegrep's own suite. Source: codesearch/results/summary.json</text>
</svg>
